<?xml version="1.0" encoding="UTF-8"?>
<svg width="46px" height="46px" viewBox="0 0 46 46" version="1.1" xmlns="http://www.w3.org/2000/svg" xmlns:xlink="http://www.w3.org/1999/xlink">
    <title>nextmile_logo_light_circle</title>
    <g id="Talent-Screens" stroke="none" stroke-width="1" fill="none" fill-rule="evenodd">
        <g id="nextmile_logo_light_circle">
            <rect id="Rectangle" x="7.13793103" y="7.13793103" width="31.7241379" height="31.7241379" rx="15.862069"></rect>
            <path d="M15.8763448,30.9310345 C15.8964368,28.7209195 16.0169885,26.8825057 16.238,25.4157931 C16.4590115,23.9490805 16.7553678,22.7937931 17.127069,21.949931 C17.4987701,21.106069 17.9357701,20.5083333 18.438069,20.1567241 C18.9403678,19.8051149 19.4928966,19.6293103 20.0956552,19.6293103 C20.8189655,19.6293103 21.3463793,19.9055747 21.6778966,20.4581034 C22.0094138,21.0106322 22.1651264,21.8092874 22.1450345,22.854069 L22.1450345,22.854069 L22.0847586,30.9310345 L26.6958621,30.9310345 L26.7561379,22.5225517 C26.7762299,20.211977 26.3342069,18.4388621 25.430069,17.2032069 C24.525931,15.9675517 23.1596782,15.3497241 21.3313103,15.3497241 C20.1257931,15.3497241 19.0358046,15.6561264 18.0613448,16.268931 C17.0868851,16.8817356 16.2882299,17.7507126 15.6653793,18.8758621 L15.6653793,18.8758621 L15.8763448,15.5908276 L11.2953793,15.5908276 L11.2953793,30.9310345 L15.8763448,30.9310345 Z" id="Path" fill="#000000" fill-rule="nonzero"></path>
            <path d="M32.422069,31.2324138 C33.3864828,31.2324138 34.155,30.9410805 34.7276207,30.3584138 C35.3002414,29.7757471 35.5865517,29.0524368 35.5865517,28.1884828 C35.5865517,27.3245287 35.3002414,26.6012184 34.7276207,26.0185517 C34.155,25.4358851 33.3864828,25.1445517 32.422069,25.1445517 C31.4576552,25.1445517 30.6941609,25.4358851 30.1315862,26.0185517 C29.5690115,26.6012184 29.2877241,27.3245287 29.2877241,28.1884828 C29.2877241,29.0524368 29.5690115,29.7757471 30.1315862,30.3584138 C30.6941609,30.9410805 31.4576552,31.2324138 32.422069,31.2324138 Z" id="Path" fill="#000000" fill-rule="nonzero"></path>
            <rect id="Rectangle" stroke="#000000" stroke-width="3" x="3.25862069" y="3.25862069" width="39.4827586" height="39.4827586" rx="19.7413793"></rect>
            <rect id="Rectangle" x="0" y="0" width="46" height="46"></rect>
        </g>
    </g>
</svg>